<?xml version="1.0" standalone="no"?>
<!DOCTYPE svg PUBLIC "-//W3C//DTD SVG 20010904//EN"
 "http://www.w3.org/TR/2001/REC-SVG-20010904/DTD/svg10.dtd">
<svg version="1.0" xmlns="http://www.w3.org/2000/svg"
 width="256.000000pt" height="256.000000pt" viewBox="0 0 256.000000 256.000000"
 preserveAspectRatio="xMidYMid meet">
<metadata>
Created by potrace 1.14, written by Peter Selinger 2001-2017
</metadata>
<g transform="translate(0.000000,256.000000) scale(0.100000,-0.100000)"
fill="#000000" stroke="none">
<path d="M1149 2435 c-2 -1 -26 -6 -54 -9 -50 -7 -182 -39 -220 -54 -216 -87
-407 -231 -534 -405 -77 -105 -166 -293 -186 -394 -28 -136 -33 -191 -30 -308
4 -149 8 -178 42 -295 102 -357 384 -650 738 -769 137 -46 240 -60 390 -56
150 4 180 8 295 42 421 122 732 470 814 913 19 100 14 332 -8 425 -83 348
-283 615 -579 775 -71 39 -210 94 -259 104 -13 3 -48 10 -78 17 -49 10 -323
23 -331 14z"/>
</g>
</svg>
